<svg xmlns="http://www.w3.org/2000/svg" viewBox="0 0 64 64">
  <defs>
    <linearGradient id="grad" x1="0%" y1="0%" x2="100%" y2="100%">
      <stop offset="0%" style="stop-color:#8B5CF6;stop-opacity:1" />
      <stop offset="100%" style="stop-color:#6366F1;stop-opacity:1" />
    </linearGradient>
  </defs>
  <rect width="64" height="64" rx="12" fill="url(#grad)"/>
  
  <!-- Neural Network Nodes -->
  <circle cx="20" cy="20" r="3" fill="white" opacity="0.9"/>
  <circle cx="20" cy="32" r="3" fill="white" opacity="0.9"/>
  <circle cx="20" cy="44" r="3" fill="white" opacity="0.9"/>
  
  <circle cx="32" cy="16" r="3.5" fill="white" opacity="0.95"/>
  <circle cx="32" cy="32" r="3.5" fill="white" opacity="0.95"/>
  <circle cx="32" cy="48" r="3.5" fill="white" opacity="0.95"/>
  
  <circle cx="44" cy="24" r="3" fill="white" opacity="0.9"/>
  <circle cx="44" cy="40" r="3" fill="white" opacity="0.9"/>
  
  <!-- Neural Network Connections -->
  <line x1="23" y1="20" x2="28.5" y2="16" stroke="white" stroke-width="1" opacity="0.4"/>
  <line x1="23" y1="20" x2="28.5" y2="32" stroke="white" stroke-width="1" opacity="0.4"/>
  <line x1="23" y1="32" x2="28.5" y2="16" stroke="white" stroke-width="1" opacity="0.4"/>
  <line x1="23" y1="32" x2="28.5" y2="32" stroke="white" stroke-width="1" opacity="0.4"/>
  <line x1="23" y1="32" x2="28.5" y2="48" stroke="white" stroke-width="1" opacity="0.4"/>
  <line x1="23" y1="44" x2="28.5" y2="32" stroke="white" stroke-width="1" opacity="0.4"/>
  <line x1="23" y1="44" x2="28.5" y2="48" stroke="white" stroke-width="1" opacity="0.4"/>
  
  <line x1="35.5" y1="16" x2="41" y2="24" stroke="white" stroke-width="1" opacity="0.4"/>
  <line x1="35.5" y1="32" x2="41" y2="24" stroke="white" stroke-width="1" opacity="0.4"/>
  <line x1="35.5" y1="32" x2="41" y2="40" stroke="white" stroke-width="1" opacity="0.4"/>
  <line x1="35.5" y1="48" x2="41" y2="40" stroke="white" stroke-width="1" opacity="0.4"/>
</svg>

